<mxfile host="app.diagrams.net" modified="2023-10-05T17:01:22.783Z" agent="Mozilla/5.0 (Windows NT 10.0; Win64; x64) AppleWebKit/537.36 (KHTML, like Gecko) Chrome/117.0.0.0 Safari/537.36" version="22.0.2" etag="Hhwz-NypYl527olCj42U" type="github">
  <diagram name="Страница — 1" id="3I1dWyryhac3CHWph8Uv">
    <mxGraphModel>
      <root>
        <mxCell id="0" />
        <mxCell id="1" parent="0" />
      </root>
    </mxGraphModel>
  </diagram>
</mxfile>
